<svg width="40" height="40" viewBox="0 0 40 40" fill="none" xmlns="http://www.w3.org/2000/svg">
<path d="M0 20C0 8.95431 8.95431 0 20 0V0C31.0457 0 40 8.95431 40 20V20C40 31.0457 31.0457 40 20 40V40C8.95431 40 0 31.0457 0 20V20Z" fill="#0084FF"/>
<g clip-path="url(#clip0)">
<path d="M20.249 10C14.149 10 9.24902 14.6 9.24902 20.2C9.24902 23.4 10.849 26.3 13.349 28.1V32L17.049 29.9C18.049 30.2 19.149 30.3 20.249 30.3C26.349 30.3 31.249 25.7 31.249 20.1C31.249 14.6 26.349 10 20.249 10ZM21.349 23.7L18.549 20.7L13.049 23.7L19.049 17.3L21.949 20.3L27.349 17.3L21.349 23.7Z" fill="white"/>
</g>
<defs>
<clipPath id="clip0">
<rect width="23" height="22" fill="white" transform="translate(9 10)"/>
</clipPath>
</defs>
</svg>
