<svg width="40" height="40" viewBox="0 0 40 40" fill="none" xmlns="http://www.w3.org/2000/svg">
<path d="M0 20C0 8.95431 8.95431 0 20 0V0C31.0457 0 40 8.95431 40 20V20C40 31.0457 31.0457 40 20 40V40C8.95431 40 0 31.0457 0 20V20Z" fill="#00BC52"/>
<path d="M29.249 11H11.249C10.149 11 9.24902 11.9 9.24902 13V27C9.24902 28.1 10.149 29 11.249 29H29.249C30.349 29 31.249 28.1 31.249 27V13C31.249 11.9 30.349 11 29.249 11ZM29.249 27H11.249V15L20.249 21L29.249 15V27ZM20.249 19L11.249 13H29.249L20.249 19Z" fill="white"/>
</svg>
