<svg width="40" height="40" viewBox="0 0 40 40" fill="none" xmlns="http://www.w3.org/2000/svg">
<path d="M0 20C0 8.95431 8.95431 0 20 0V0C31.0457 0 40 8.95431 40 20V20C40 31.0457 31.0457 40 20 40V40C8.95431 40 0 31.0457 0 20V20Z" fill="#7C529D"/>
<path d="M31.249 13.798C30.649 11.498 28.149 9.098 25.849 8.598C22.149 7.898 18.349 7.898 14.649 8.598C12.349 9.098 9.849 11.498 9.249 13.798C8.549 16.998 8.549 20.198 9.249 23.298C9.749 25.498 12.149 27.798 14.349 28.398V30.898C14.349 31.798 15.449 32.298 16.049 31.598L18.549 28.898C19.149 28.898 19.649 28.898 20.249 28.898C22.149 28.898 23.949 28.698 25.849 28.398C28.149 27.898 30.649 25.498 31.249 23.198C31.949 20.198 31.949 16.998 31.249 13.798ZM29.249 22.898C28.849 24.398 26.949 26.198 25.449 26.598C23.449 26.998 21.449 27.098 19.449 27.098H19.349C19.049 27.398 17.449 28.998 17.449 28.998L15.449 30.998C15.349 31.198 15.049 30.998 15.049 30.798V26.598C15.049 26.498 15.049 26.498 14.949 26.498C13.449 26.198 11.549 24.298 11.149 22.798C10.549 19.898 10.549 16.998 11.149 14.198C11.549 12.698 13.449 10.898 14.949 10.498C18.449 9.79799 21.949 9.79799 25.349 10.498C26.849 10.798 28.749 12.698 29.149 14.198C29.849 17.098 29.849 19.998 29.249 22.898ZM24.349 21.398C24.049 21.198 23.649 20.898 23.349 20.698C23.049 20.498 22.549 20.498 22.249 20.698C21.949 20.998 21.749 21.498 21.249 21.598C20.949 21.598 20.749 21.498 20.449 21.398C18.949 20.798 17.949 19.598 17.449 17.998C17.349 17.798 17.349 17.598 17.449 17.398C17.549 17.298 17.549 17.198 17.649 17.198C17.749 17.098 17.849 16.998 17.949 16.998C18.349 16.698 18.449 16.098 18.249 15.698C17.849 14.998 17.349 14.298 16.849 13.698C16.549 13.398 16.249 13.298 15.949 13.498C15.549 13.698 15.149 13.998 14.749 14.398C14.449 14.798 14.049 15.398 14.349 15.898C14.549 16.498 14.849 17.098 15.049 17.598C15.649 18.798 16.349 19.898 17.249 20.898C18.849 22.698 20.749 23.798 22.849 24.698C23.049 24.798 23.249 24.798 23.549 24.898C23.749 24.798 23.949 24.798 24.149 24.698C24.749 24.398 25.249 23.798 25.549 23.198C25.749 22.798 25.649 22.498 25.349 22.198C24.949 21.898 24.649 21.598 24.349 21.398ZM20.249 12.598C20.149 12.598 23.049 12.698 20.249 12.598V12.598ZM20.249 12.598C20.149 12.598 20.149 12.598 20.049 12.598C19.849 12.598 19.649 12.798 19.749 12.998C19.749 13.198 20.049 13.298 20.249 13.298C20.549 13.298 20.849 13.298 21.149 13.398C23.249 13.798 24.849 15.498 25.149 17.598C25.249 17.998 25.249 18.398 25.249 18.798C25.249 18.998 25.349 19.198 25.549 19.198C25.749 19.198 25.849 18.998 25.849 18.798C25.849 18.298 25.749 17.798 25.649 17.398C25.349 14.598 23.049 12.698 20.249 12.598ZM23.849 18.098C23.849 18.198 23.849 18.298 23.849 18.398C23.949 18.698 24.349 18.598 24.449 18.398C24.449 18.298 24.449 18.198 24.449 18.198C24.449 17.998 24.449 17.898 24.449 17.698C24.449 17.598 24.449 17.598 24.449 17.498C24.249 16.198 23.549 15.198 22.449 14.598C21.849 14.298 21.249 14.198 20.649 14.098C20.449 14.098 20.349 14.198 20.349 14.398C20.349 14.598 20.449 14.698 20.649 14.698C20.849 14.698 20.949 14.698 21.149 14.798C21.549 14.898 21.849 14.998 22.249 15.098C22.749 15.398 23.249 15.798 23.549 16.398C23.649 16.898 23.849 17.498 23.849 18.098ZM22.749 18.098C22.849 18.098 22.949 17.998 22.949 17.898C22.949 17.798 22.949 17.698 22.949 17.598C22.849 16.298 22.049 15.798 20.949 15.698C20.749 15.698 20.649 15.798 20.549 15.998C20.549 16.198 20.649 16.298 20.849 16.398C21.049 16.398 21.149 16.398 21.349 16.498C21.449 16.498 21.649 16.598 21.749 16.698C21.949 16.898 22.149 17.098 22.249 17.398C22.249 17.498 22.249 17.698 22.349 17.798C22.349 17.998 22.549 18.098 22.749 18.098C22.549 18.098 22.649 18.098 22.749 18.098Z" fill="white"/>
</svg>
