<svg width="40" height="40" viewBox="0 0 40 40" fill="none" xmlns="http://www.w3.org/2000/svg">
<path d="M0 20C0 8.95431 8.95431 0 20 0V0C31.0457 0 40 8.95431 40 20V20C40 31.0457 31.0457 40 20 40V40C8.95431 40 0 31.0457 0 20V20Z" fill="#50C75B"/>
<g clip-path="url(#clip0)">
<path d="M28.609 11.3422C27.5533 10.2789 26.297 9.43584 24.9128 8.8621C23.5287 8.28836 22.0444 7.99532 20.546 8C14.2656 8 9.15383 13.1118 9.15383 19.3965C9.15383 21.4047 9.67996 23.3683 10.6761 25.0933L9.05896 31L15.1008 29.4144C16.7711 30.3243 18.6425 30.8017 20.5446 30.8031H20.5489C26.8293 30.8031 31.9454 25.6913 31.9454 19.4066C31.9492 17.9087 31.6562 16.425 31.0833 15.0411C30.5104 13.6572 29.6689 12.4005 28.6075 11.3436L28.609 11.3422ZM20.5489 28.8797C18.8514 28.88 17.1851 28.4237 15.7246 27.5586L15.3782 27.3516L11.7931 28.2903L12.7505 24.7958L12.5262 24.4364C11.5742 22.9281 11.0712 21.1801 11.0758 19.3965C11.0788 16.8839 12.0786 14.4751 13.8557 12.6988C15.6328 10.9225 18.042 9.92384 20.5546 9.92194C23.0832 9.92194 25.4651 10.9109 27.252 12.6978C28.1337 13.5763 28.8327 14.6209 29.3084 15.7712C29.7841 16.9215 30.0271 18.1546 30.0235 19.3994C30.0191 24.6276 25.7699 28.8783 20.5489 28.8783V28.8797ZM25.7426 21.7828C25.4594 21.639 24.0578 20.9519 23.7976 20.857C23.5375 20.7621 23.3477 20.7133 23.1551 21.0008C22.9668 21.2839 22.4191 21.9265 22.2523 22.1191C22.0856 22.3074 21.9203 22.3348 21.6371 22.191C21.3539 22.0473 20.4325 21.7468 19.3457 20.7765C18.5005 20.0218 17.9269 19.0874 17.7601 18.8043C17.5934 18.5211 17.7415 18.3644 17.8866 18.2249C18.0175 18.0984 18.1698 17.8929 18.3136 17.7261C18.4573 17.5594 18.5019 17.4429 18.5968 17.2503C18.6916 17.062 18.6456 16.8953 18.5738 16.7515C18.5019 16.6078 17.9312 15.2062 17.6983 14.6355C17.4698 14.0778 17.2311 14.1554 17.0558 14.1453C16.889 14.1367 16.7007 14.1367 16.5124 14.1367C16.3241 14.1367 16.0136 14.2086 15.7534 14.4918C15.4932 14.7749 14.7558 15.4664 14.7558 16.8679C14.7558 18.2695 15.775 19.6222 15.9187 19.8148C16.0625 20.0031 17.9269 22.8824 20.7832 24.1144C21.4617 24.4062 21.9921 24.5816 22.4047 24.7167C23.0875 24.9323 23.7071 24.9007 24.1973 24.8288C24.745 24.7483 25.882 24.1417 26.1206 23.4761C26.3593 22.8106 26.3593 22.2413 26.2874 22.1234C26.2198 21.9969 26.0315 21.9265 25.744 21.7813L25.7426 21.7828Z" fill="white"/>
</g>
<defs>
<clipPath id="clip0">
<rect width="23" height="23" fill="white" transform="translate(9 8)"/>
</clipPath>
</defs>
</svg>
