<svg width="40" height="40" viewBox="0 0 40 40" fill="none" xmlns="http://www.w3.org/2000/svg">
<path d="M0 20C0 8.95431 8.95431 0 20 0V0C31.0457 0 40 8.95431 40 20V20C40 31.0457 31.0457 40 20 40V40C8.95431 40 0 31.0457 0 20V20Z" fill="#31C4ED"/>
<path fill-rule="evenodd" clip-rule="evenodd" d="M25.4714 25.0133C24.9823 25.6901 24.2642 26.2315 23.338 26.6167C22.4222 26.9915 21.3191 27.1789 20.0598 27.1789C18.5509 27.1789 17.2916 26.9187 16.303 26.3981C15.5953 26.0232 15.0229 25.5131 14.5755 24.8884C14.128 24.2533 13.899 23.6285 13.899 23.0143C13.899 22.6394 14.0447 22.3063 14.3361 22.0356C14.6171 21.7753 14.9917 21.6399 15.4288 21.6399C15.7931 21.6399 16.1053 21.744 16.355 21.9523C16.5944 22.1501 16.8025 22.4624 16.969 22.8373C17.1563 23.2537 17.3541 23.6077 17.5726 23.8888C17.7807 24.1595 18.0721 24.3886 18.4572 24.5656C18.8318 24.7426 19.3522 24.8363 19.9766 24.8363C20.8508 24.8363 21.5584 24.6489 22.0892 24.2949C22.6199 23.9409 22.8697 23.514 22.8697 23.0038C22.8697 22.5978 22.7344 22.275 22.4638 22.0251C22.1724 21.7648 21.7978 21.5566 21.3399 21.4213C20.8612 21.2755 20.2159 21.1089 19.4146 20.9527C18.3219 20.7237 17.3957 20.4426 16.6672 20.1406C15.9179 19.8283 15.3039 19.391 14.8668 18.8391C14.7211 18.6621 14.6067 18.4643 14.513 18.2561C14.3049 17.8188 14.1904 17.319 14.1904 16.7672C14.1904 15.9863 14.4298 15.2783 14.8981 14.6745C15.3664 14.0706 16.0532 13.602 16.9378 13.2793C17.812 12.9565 18.8422 12.8003 20.0182 12.8003C20.9548 12.8003 21.777 12.9149 22.4638 13.1231C23.1611 13.3313 23.7335 13.6229 24.2018 13.9769C24.6597 14.3309 25.0031 14.7057 25.2216 15.1117C25.4402 15.5074 25.5546 15.903 25.5546 16.2883C25.5546 16.6527 25.4089 16.9963 25.128 17.2878C24.8366 17.5793 24.4723 17.7251 24.0457 17.7251C23.6606 17.7251 23.3484 17.6314 23.1507 17.444C22.9529 17.267 22.7552 17.0067 22.5263 16.6214C22.2661 16.1321 21.9435 15.7469 21.5897 15.4762C21.2358 15.2159 20.6426 15.0805 19.8309 15.0805C19.0816 15.0805 18.4676 15.2263 18.0097 15.5178C17.5726 15.7989 17.3645 16.1217 17.3645 16.5069C17.3645 16.7464 17.4269 16.9442 17.5726 17.1108C17.7287 17.2878 17.9264 17.4544 18.197 17.5793C18.4676 17.7147 18.759 17.8292 19.04 17.9021C19.092 17.9125 19.1545 17.9333 19.2273 17.9541C19.5291 18.027 19.9454 18.1311 20.4969 18.2561C21.3503 18.4331 22.1308 18.6413 22.8177 18.86C23.5149 19.0786 24.1185 19.3493 24.6076 19.6721C25.1176 19.9949 25.5026 20.4009 25.794 20.9007C26.075 21.4004 26.2207 22.0147 26.2207 22.7227C26.1999 23.5557 25.9501 24.3261 25.4714 25.0133ZM30.3418 22.2854C30.5083 21.5774 30.5811 20.8278 30.5811 20.0677C30.5811 19.8074 30.5707 19.5471 30.5499 19.2869C30.144 13.9352 25.6171 9.71847 20.0911 9.71847C19.4771 9.71847 18.8839 9.77052 18.3011 9.87464C17.3645 9.29158 16.2509 8.948 15.0646 8.948C11.7032 8.948 8.987 11.6342 8.987 14.9556C8.987 16.0592 9.2888 17.1004 9.81954 17.9854C9.73629 18.3602 9.68425 18.735 9.65303 19.1307C9.62181 19.443 9.61141 19.7554 9.61141 20.0677C9.61141 25.7838 14.3049 30.417 20.1015 30.417C20.7571 30.417 21.4023 30.3545 22.0267 30.24C22.8905 30.6877 23.8687 30.948 24.899 30.948C28.2604 30.948 30.987 28.2618 30.987 24.9404C30.9662 23.993 30.7372 23.0871 30.3418 22.2854Z" fill="white"/>
</svg>
