<svg width="40" height="40" viewBox="0 0 40 40" fill="none" xmlns="http://www.w3.org/2000/svg">
<path d="M0 20C0 8.95431 8.95431 0 20 0V0C31.0457 0 40 8.95431 40 20V20C40 31.0457 31.0457 40 20 40V40C8.95431 40 0 31.0457 0 20V20Z" fill="#FF671F"/>
<path d="M15.607 18.79C17.047 21.62 19.367 23.93 22.197 25.38L24.397 23.18C24.667 22.91 25.067 22.82 25.417 22.94C26.537 23.31 27.747 23.51 28.987 23.51C29.537 23.51 29.987 23.96 29.987 24.51V28C29.987 28.55 29.537 29 28.987 29C19.597 29 11.987 21.39 11.987 12C11.987 11.45 12.437 11 12.987 11H16.487C17.037 11 17.487 11.45 17.487 12C17.487 13.25 17.687 14.45 18.057 15.57C18.167 15.92 18.087 16.31 17.807 16.59L15.607 18.79Z" fill="white"/>
</svg>
