<svg width="40" height="40" viewBox="0 0 40 40" fill="none" xmlns="http://www.w3.org/2000/svg">
<path d="M0 20C0 8.95431 8.95431 0 20 0V0C31.0457 0 40 8.95431 40 20V20C40 31.0457 31.0457 40 20 40V40C8.95431 40 0 31.0457 0 20V20Z" fill="#2CA5E0"/>
<path d="M29.7558 12.1575C29.7558 12.6575 29.5558 13.2575 29.4558 13.7575C28.4558 18.4575 27.5558 23.0575 26.5558 27.7575C26.4558 28.0575 26.4558 28.2575 26.2558 28.5575C26.0558 28.9575 25.6558 29.0575 25.2558 28.9575C24.9558 28.8575 24.7558 28.7575 24.5558 28.5575C23.0558 27.4575 21.6558 26.3575 20.1558 25.2575C19.9558 25.1575 19.8558 25.1575 19.7558 25.2575C19.0558 25.9575 18.3559 26.6575 17.5559 27.4575C17.2559 27.7575 16.9559 27.8575 16.5559 27.8575C16.2559 27.8575 16.1559 27.7575 16.0559 27.4575C15.6559 26.0575 15.1558 24.5575 14.6558 23.1575C14.4558 22.6575 14.3558 22.1575 14.1558 21.6575C14.0558 21.4575 14.0559 21.3575 13.8559 21.3575C12.4559 20.9575 10.9559 20.4575 9.55585 19.9575C9.35585 19.8575 9.15585 19.8575 9.05585 19.7575C8.65585 19.4575 8.65585 19.1575 8.95585 18.8575C9.15585 18.6575 9.45585 18.4575 9.75584 18.3575C11.6558 17.5575 13.6559 16.8575 15.5559 16.0575C19.7558 14.3575 23.9558 12.7575 28.1558 11.0575H28.2558C29.1558 10.8575 29.7558 11.2575 29.7558 12.1575ZM16.6558 26.5575C16.7558 26.5575 16.7558 26.4575 16.7558 26.4575C16.8558 25.4575 16.9559 24.3575 17.0559 23.3575C17.0559 23.0575 17.1559 22.8575 17.3559 22.7575C20.0558 20.2575 22.8558 17.7575 25.5558 15.1575C25.7558 14.9575 25.8558 14.8575 26.0558 14.6575C26.1558 14.5575 26.2558 14.5575 26.1558 14.3575C26.0558 14.2575 25.9559 14.2575 25.8558 14.2575C25.6558 14.2575 25.4558 14.3575 25.2558 14.4575C21.8558 16.6575 18.5558 18.7575 15.1558 20.9575C14.9558 21.0575 14.9559 21.1575 15.0559 21.3575C15.4559 22.6575 15.8558 23.9575 16.2558 25.1575C16.3558 25.7575 16.4558 26.1575 16.6558 26.5575Z" fill="white"/>
</svg>
