<svg width="25" height="25" viewBox="0 0 25 25" fill="none" xmlns="http://www.w3.org/2000/svg">
<path fill-rule="evenodd" clip-rule="evenodd" d="M18.5576 14H23C23.5523 14 24 13.5523 24 13V2C24 1.44771 23.5523 1 23 1H18.5576C18.0053 1 17.5576 1.44772 17.5576 2V13C17.5576 13.5523 18.0053 14 18.5576 14ZM23 15C24.1046 15 25 14.1046 25 13V2C25 0.895431 24.1046 0 23 0H18.5576C17.453 0 16.5576 0.895431 16.5576 2V13C16.5576 14.1046 17.453 15 18.5576 15H23Z" fill="#A7A7A7"/>
<path fill-rule="evenodd" clip-rule="evenodd" d="M21.5 2.94482C21.2239 2.94482 21 3.16868 21 3.44482C21 3.72097 21.2239 3.94482 21.5 3.94482C21.7761 3.94482 22 3.72097 22 3.44482C22 3.16868 21.7761 2.94482 21.5 2.94482ZM21.5 1.94482C20.6716 1.94482 20 2.6164 20 3.44482C20 4.27325 20.6716 4.94482 21.5 4.94482C22.3284 4.94482 23 4.27325 23 3.44482C23 2.6164 22.3284 1.94482 21.5 1.94482Z" fill="#A7A7A7"/>
<path fill-rule="evenodd" clip-rule="evenodd" d="M7.99263 23.251C8.44537 23.3574 8.92335 23.1604 9.18044 22.7582C9.83644 21.732 10.9532 20.0548 12.1688 18.5361C13.1313 17.3334 14.2527 16.1091 15.1298 15.1886C15.5691 14.7276 15.9488 14.3412 16.2188 14.0698C16.3335 13.9545 16.4286 13.8598 16.5 13.789L16.5 1.67138L3.95089 1.54112C3.92133 1.54082 3.81056 1.56454 3.6279 1.7463C3.45673 1.91662 3.28046 2.17001 3.12587 2.46918C2.97259 2.76581 2.85168 3.08606 2.7807 3.37563C2.70665 3.67769 2.6995 3.8955 2.72403 4.0102C2.86633 4.67552 2.80893 5.20525 2.644 5.6553C2.50411 6.03702 2.28867 6.34753 2.12199 6.58776C2.10113 6.61783 2.08103 6.6468 2.06194 6.67467C1.87603 6.94605 1.77823 7.12155 1.75309 7.31363C1.73002 7.48987 1.76089 7.7581 2.02595 8.20594C2.64339 9.24914 2.78914 9.85209 2.58939 10.4561C2.54668 10.5853 2.49189 10.7034 2.44294 10.8052C2.43067 10.8307 2.41879 10.8552 2.40719 10.8791C2.36957 10.9566 2.33496 11.0279 2.29968 11.1092C2.2136 11.3075 2.13144 11.5496 2.09271 11.9039C2.05774 12.2237 2.18149 12.6715 2.44103 13.0596C2.70517 13.4546 3.02283 13.6629 3.27561 13.6836L8.58963 14.1182C8.95835 14.1483 9.2094 14.5055 9.11292 14.8627L7.20381 21.9295C7.04597 22.5138 7.40343 23.1127 7.99263 23.251ZM17.3489 14.3565L17.3422 14.363L17.3212 14.3836L17.2386 14.465C17.1663 14.5365 17.0606 14.6415 16.9276 14.7751C16.6617 15.0424 16.2872 15.4236 15.8538 15.8785C14.9853 16.7898 13.8862 17.9905 12.9495 19.1609C11.7662 20.6394 10.6713 22.2827 10.023 23.2968C9.54394 24.0462 8.64178 24.4307 7.764 24.2246C6.62449 23.9569 5.93315 22.7987 6.23842 21.6687L8.01973 15.0749L3.1941 14.6803C2.50949 14.6243 1.95645 14.1339 1.60979 13.6155C1.25853 13.0903 1.03139 12.4102 1.09863 11.7952C1.15007 11.3247 1.26346 10.985 1.38235 10.711C1.42698 10.6082 1.4738 10.5118 1.51277 10.4316C1.523 10.4106 1.53269 10.3906 1.54165 10.372C1.58793 10.2757 1.61872 10.2064 1.63996 10.1421C1.69605 9.97253 1.75163 9.70578 1.16539 8.71528C0.828604 8.14626 0.700296 7.65185 0.761543 7.18386C0.820721 6.7317 1.05072 6.38137 1.23695 6.10952C1.25814 6.07859 1.27891 6.04846 1.29924 6.01896C1.47134 5.76934 1.61188 5.56548 1.70507 5.3112C1.80174 5.04741 1.8511 4.71009 1.74615 4.21935C1.67521 3.88771 1.72135 3.49695 1.80945 3.13754C1.90062 2.76563 2.05074 2.37149 2.23747 2.01012C2.42289 1.65128 2.65561 1.30305 2.92254 1.03744C3.17798 0.783272 3.53441 0.536745 3.96127 0.541176L17.5 0.681702L17.5 14.2092L17.3489 14.3565Z" fill="#A7A7A7"/>
</svg>
