<svg width="25" height="25" viewBox="0 0 25 25" fill="none" xmlns="http://www.w3.org/2000/svg">
<path fill-rule="evenodd" clip-rule="evenodd" d="M6.44242 11H2C1.44772 11 1 11.4477 1 12V23C1 23.5523 1.44772 24 2 24H6.44242C6.99471 24 7.44242 23.5523 7.44242 23V12C7.44242 11.4477 6.99471 11 6.44242 11ZM2 10C0.895431 10 0 10.8954 0 12V23C0 24.1046 0.895429 25 2 25H6.44242C7.54699 25 8.44242 24.1046 8.44242 23V12C8.44242 10.8954 7.54699 10 6.44242 10H2Z" fill="#00BC52"/>
<path fill-rule="evenodd" clip-rule="evenodd" d="M3.5 22.0552C3.77614 22.0552 4 21.8313 4 21.5552C4 21.279 3.77614 21.0552 3.5 21.0552C3.22386 21.0552 3 21.279 3 21.5552C3 21.8313 3.22386 22.0552 3.5 22.0552ZM3.5 23.0552C4.32843 23.0552 5 22.3836 5 21.5552C5 20.7267 4.32843 20.0552 3.5 20.0552C2.67157 20.0552 2 20.7267 2 21.5552C2 22.3836 2.67157 23.0552 3.5 23.0552Z" fill="#00BC52"/>
<path fill-rule="evenodd" clip-rule="evenodd" d="M17.0074 1.74896C16.5546 1.64263 16.0767 1.83961 15.8196 2.24178C15.1636 3.26795 14.0468 4.94521 12.8312 6.46394C11.8687 7.66662 10.7473 8.89094 9.87018 9.81141C9.43086 10.2724 9.05125 10.6588 8.78124 10.9302C8.66646 11.0455 8.57144 11.1402 8.5 11.211V23.3286L21.0491 23.4589C21.0787 23.4592 21.1894 23.4355 21.3721 23.2537C21.5433 23.0834 21.7195 22.83 21.8741 22.5308C22.0274 22.2342 22.1483 21.9139 22.2193 21.6244C22.2934 21.3223 22.3005 21.1045 22.276 20.9898C22.1337 20.3245 22.1911 19.7947 22.356 19.3447C22.4959 18.963 22.7113 18.6525 22.878 18.4122C22.8989 18.3822 22.919 18.3532 22.9381 18.3253C23.124 18.054 23.2218 17.8785 23.2469 17.6864C23.27 17.5101 23.2391 17.2419 22.974 16.7941C22.3566 15.7509 22.2109 15.1479 22.4106 14.5439C22.4533 14.4147 22.5081 14.2966 22.5571 14.1948C22.5693 14.1693 22.5812 14.1448 22.5928 14.1209C22.6304 14.0434 22.665 13.9721 22.7003 13.8908C22.7864 13.6925 22.8686 13.4504 22.9073 13.0961C22.9423 12.7763 22.8185 12.3285 22.559 11.9404C22.2948 11.5454 21.9772 11.3371 21.7244 11.3164L16.4104 10.8818C16.0416 10.8517 15.7906 10.4945 15.8871 10.1373L17.7962 3.07047C17.954 2.48619 17.5966 1.88733 17.0074 1.74896ZM7.65106 10.6435L7.65777 10.637L7.67881 10.6164L7.76141 10.535C7.83371 10.4635 7.93943 10.3585 8.07236 10.2249C8.33826 9.95762 8.71275 9.57643 9.14624 9.12154C10.0147 8.2102 11.1138 7.00945 12.0505 5.83908C13.2338 4.36061 14.3287 2.71726 14.977 1.70316C15.4561 0.953788 16.3582 0.569295 17.236 0.775441C18.3755 1.04305 19.0669 2.20126 18.7616 3.33127L16.9803 9.92509L21.8059 10.3197C22.4905 10.3757 23.0435 10.8661 23.3902 11.3845C23.7415 11.9097 23.9686 12.5898 23.9014 13.2048C23.8499 13.6753 23.7365 14.015 23.6176 14.289C23.573 14.3918 23.5262 14.4882 23.4872 14.5684C23.477 14.5894 23.4673 14.6094 23.4583 14.628C23.4121 14.7243 23.3813 14.7936 23.36 14.8579C23.3039 15.0275 23.2484 15.2942 23.8346 16.2847C24.1714 16.8537 24.2997 17.3482 24.2385 17.8161C24.1793 18.2683 23.9493 18.6186 23.7631 18.8905C23.7419 18.9214 23.7211 18.9515 23.7008 18.981C23.5287 19.2307 23.3881 19.4345 23.2949 19.6888C23.1983 19.9526 23.1489 20.2899 23.2539 20.7806C23.3248 21.1123 23.2787 21.503 23.1905 21.8625C23.0994 22.2344 22.9493 22.6285 22.7625 22.9899C22.5771 23.3487 22.3444 23.6969 22.0775 23.9626C21.822 24.2167 21.4656 24.4633 21.0387 24.4588L7.5 24.3183V10.7908L7.65106 10.6435Z" fill="#00BC52"/>
</svg>
