<svg width="103" height="18" viewBox="0 0 103 18" fill="none" xmlns="http://www.w3.org/2000/svg">
<path fill-rule="evenodd" clip-rule="evenodd" d="M30.5 14.75L26.1217 17.0518C25.3881 17.4375 24.5307 16.8145 24.6708 15.9976L25.507 11.1223L21.9649 7.66965C21.3713 7.09111 21.6988 6.08314 22.5191 5.96395L27.4141 5.25266L29.6033 0.816986C29.9701 0.0737402 31.0299 0.07374 31.3967 0.816986L33.5859 5.25266L38.4809 5.96395C39.3012 6.08314 39.6287 7.09111 39.0351 7.66965L35.493 11.1223L36.3292 15.9976C36.4693 16.8145 35.6119 17.4375 34.8783 17.0518L30.5 14.75Z" fill="#E5DB77"/>
<path fill-rule="evenodd" clip-rule="evenodd" d="M51.5 14.75L47.1217 17.0518C46.3881 17.4375 45.5307 16.8145 45.6708 15.9976L46.507 11.1223L42.9649 7.66965C42.3713 7.09111 42.6988 6.08314 43.5191 5.96395L48.4141 5.25266L50.6033 0.816986C50.9701 0.0737402 52.0299 0.07374 52.3967 0.816986L54.5859 5.25266L59.4809 5.96395C60.3012 6.08314 60.6287 7.09111 60.0351 7.66965L56.493 11.1223L57.3292 15.9976C57.4693 16.8145 56.6119 17.4375 55.8783 17.0518L51.5 14.75Z" fill="#E5DB77"/>
<path fill-rule="evenodd" clip-rule="evenodd" d="M72.9653 14.9946C72.674 14.8415 72.326 14.8415 72.0347 14.9946L68.1217 17.0518C67.3881 17.4375 66.5307 16.8145 66.6708 15.9976L67.507 11.1223L63.9649 7.66965C63.3713 7.09111 63.6988 6.08314 64.5191 5.96395L69.4141 5.25266L71.6033 0.816986C71.9701 0.0737402 73.0299 0.07374 73.3967 0.816986L75.5859 5.25266L80.4809 5.96395C81.3012 6.08314 81.6287 7.09111 81.0351 7.66965L77.493 11.1223L78.3292 15.9976C78.4693 16.8145 77.6119 17.4375 76.8783 17.0518L72.9653 14.9946Z" fill="#E5DB77"/>
<path fill-rule="evenodd" clip-rule="evenodd" d="M9.96534 14.9946C9.67402 14.8415 9.32598 14.8415 9.03466 14.9946L5.12173 17.0518C4.3881 17.4375 3.53067 16.8145 3.67078 15.9976L4.50695 11.1223L0.964856 7.66965C0.371339 7.09111 0.698849 6.08314 1.51907 5.96395L6.41413 5.25266L8.60326 0.816986C8.97008 0.0737402 10.0299 0.07374 10.3967 0.816986L12.5859 5.25266L17.4809 5.96395C18.3012 6.08314 18.6287 7.09111 18.0351 7.66965L14.493 11.1223L15.3292 15.9976C15.4693 16.8145 14.6119 17.4375 13.8783 17.0518L9.96534 14.9946Z" fill="#E5DB77"/>
<path fill-rule="evenodd" clip-rule="evenodd" d="M93.5 14.75L89.1217 17.0518C88.3881 17.4375 87.5307 16.8145 87.6708 15.9976L88.507 11.1223L84.9649 7.66965C84.3713 7.09111 84.6988 6.08314 85.5191 5.96395L90.4141 5.25266L92.6033 0.816986C92.9701 0.0737402 94.0299 0.07374 94.3967 0.816986L96.5859 5.25266L101.481 5.96395C102.301 6.08314 102.629 7.09111 102.035 7.66965L98.493 11.1223L99.3292 15.9976C99.4693 16.8145 98.6119 17.4375 97.8783 17.0518L93.5 14.75Z" fill="#E5DB77"/>
</svg>