<svg width="13" height="12" viewBox="0 0 13 12" fill="none" xmlns="http://www.w3.org/2000/svg">
<path fill-rule="evenodd" clip-rule="evenodd" d="M6.5 4.5C7.32843 4.5 8 3.82843 8 3C8 2.17157 7.32843 1.5 6.5 1.5C5.67157 1.5 5 2.17157 5 3C5 3.82843 5.67157 4.5 6.5 4.5ZM6.5 6C8.15685 6 9.5 4.65685 9.5 3C9.5 1.34315 8.15685 0 6.5 0C4.84315 0 3.5 1.34315 3.5 3C3.5 4.65685 4.84315 6 6.5 6Z" fill="black"/>
<path fill-rule="evenodd" clip-rule="evenodd" d="M5.32999 8.45003C4.89017 8.37683 4.36989 8.27792 3.84399 8.17254C3.06693 8.01684 2.375 8.60557 2.375 9.33824C2.375 9.97994 2.8952 10.5001 3.5369 10.5001H9.4631C10.1048 10.5001 10.625 9.97994 10.625 9.33824C10.625 8.60557 9.93307 8.01684 9.15601 8.17254C8.63011 8.27792 8.10983 8.37683 7.67001 8.45003C7.27405 8.51593 6.82096 8.58303 6.5 8.58303C6.17904 8.58303 5.72595 8.51593 5.32999 8.45003ZM4.13869 6.70178C2.46274 6.36596 0.875 7.62898 0.875 9.33824C0.875 10.8084 2.06677 12.0001 3.5369 12.0001H9.4631C10.9332 12.0001 12.125 10.8084 12.125 9.33824C12.125 7.62898 10.5373 6.36596 8.86131 6.70178C7.82349 6.90973 6.85275 7.08303 6.5 7.08303C6.14725 7.08303 5.17651 6.90973 4.13869 6.70178Z" fill="black"/>
</svg>
