<svg width="9" height="9" viewBox="0 0 9 9" fill="none" xmlns="http://www.w3.org/2000/svg">
<path fill-rule="evenodd" clip-rule="evenodd" d="M7.6934 1.30912C7.88866 1.50438 7.88866 1.82096 7.6934 2.01623L2.0186 7.69103C1.82334 7.88629 1.50675 7.88629 1.31149 7.69103C1.11623 7.49576 1.11623 7.17918 1.31149 6.98392L6.98629 1.30912C7.18155 1.11386 7.49814 1.11386 7.6934 1.30912Z" fill="black"/>
<path fill-rule="evenodd" clip-rule="evenodd" d="M7.6816 7.68119C7.48634 7.87645 7.16976 7.87645 6.9745 7.68119L1.39838 2.10507C1.20311 1.90981 1.20311 1.59322 1.39838 1.39796C1.59364 1.2027 1.91022 1.2027 2.10548 1.39796L7.6816 6.97408C7.87687 7.16935 7.87686 7.48593 7.6816 7.68119Z" fill="black"/>
</svg>
