<svg width="9" height="9" viewBox="0 0 9 9" fill="none" xmlns="http://www.w3.org/2000/svg">
<path fill-rule="evenodd" clip-rule="evenodd" d="M7.6934 1.30912C7.88866 1.50438 7.88866 1.82096 7.6934 2.01623L2.0186 7.69103C1.82334 7.88629 1.50675 7.88629 1.31149 7.69103C1.11623 7.49576 1.11623 7.17918 1.31149 6.98392L6.98629 1.30912C7.18155 1.11386 7.49814 1.11386 7.6934 1.30912Z" fill="#979797"/>
<path fill-rule="evenodd" clip-rule="evenodd" d="M7.6816 7.6807C7.48634 7.87596 7.16976 7.87596 6.9745 7.6807L1.39838 2.10458C1.20311 1.90932 1.20311 1.59274 1.39838 1.39747C1.59364 1.20221 1.91022 1.20221 2.10548 1.39747L7.6816 6.9736C7.87687 7.16886 7.87686 7.48544 7.6816 7.6807Z" fill="#979797"/>
</svg>
