<svg width="83" height="87" viewBox="0 0 83 87" fill="none" xmlns="http://www.w3.org/2000/svg">
<path fill-rule="evenodd" clip-rule="evenodd" d="M44.6007 78.5283C60.3408 78.5283 73.1007 65.7684 73.1007 50.0283C73.1007 34.2882 60.3408 21.5283 44.6007 21.5283C28.8606 21.5283 16.1007 34.2882 16.1007 50.0283C16.1007 65.7684 28.8606 78.5283 44.6007 78.5283ZM44.6007 80.0283C61.1693 80.0283 74.6007 66.5969 74.6007 50.0283C74.6007 33.4598 61.1693 20.0283 44.6007 20.0283C28.0322 20.0283 14.6007 33.4598 14.6007 50.0283C14.6007 66.5969 28.0322 80.0283 44.6007 80.0283Z" fill="black"/>
<path d="M48.2014 52.7483C48.2014 71.2498 37.4112 86.2483 24.1007 86.2483C10.7903 86.2483 0 71.2498 0 52.7483C0 34.2468 10.7903 19.2483 24.1007 19.2483C37.4112 19.2483 48.2014 34.2468 48.2014 52.7483Z" fill="white"/>
<path fill-rule="evenodd" clip-rule="evenodd" d="M39.9249 75.5604C44.083 69.7806 46.7014 61.7201 46.7014 52.7483C46.7014 43.7765 44.083 35.716 39.9249 29.9362C35.7651 24.1541 30.1506 20.7483 24.1007 20.7483C18.0508 20.7483 12.4363 24.1541 8.27657 29.9362C4.11844 35.716 1.5 43.7765 1.5 52.7483C1.5 61.7201 4.11844 69.7806 8.27657 75.5604C12.4363 81.3425 18.0508 84.7483 24.1007 84.7483C30.1506 84.7483 35.7651 81.3425 39.9249 75.5604ZM24.1007 86.2483C37.4112 86.2483 48.2014 71.2498 48.2014 52.7483C48.2014 34.2468 37.4112 19.2483 24.1007 19.2483C10.7903 19.2483 0 34.2468 0 52.7483C0 71.2498 10.7903 86.2483 24.1007 86.2483Z" fill="black"/>
<path fill-rule="evenodd" clip-rule="evenodd" d="M23.6544 44.7483C27.0327 44.7483 29.7417 42.0457 29.7417 38.7483C29.7417 35.4509 27.0327 32.7483 23.6544 32.7483C20.2761 32.7483 17.5671 35.4509 17.5671 38.7483C17.5671 42.0457 20.2761 44.7483 23.6544 44.7483ZM23.6544 46.2483C27.8447 46.2483 31.2417 42.8904 31.2417 38.7483C31.2417 34.6062 27.8447 31.2483 23.6544 31.2483C19.4641 31.2483 16.0671 34.6062 16.0671 38.7483C16.0671 42.8904 19.4641 46.2483 23.6544 46.2483Z" fill="black"/>
<path d="M77.6007 0.528309C80.3621 0.528309 82.6007 2.76689 82.6007 5.52831L82.6007 49.5283C82.6007 52.2897 80.3621 54.5283 77.6007 54.5283L54.6007 54.5283C51.8393 54.5283 49.6007 52.2897 49.6007 49.5283L49.6007 5.52831C49.6007 2.76689 51.8393 0.528309 54.6007 0.528309L77.6007 0.528309Z" fill="white"/>
<path fill-rule="evenodd" clip-rule="evenodd" d="M81.1007 49.5283L81.1007 5.52831C81.1007 3.59531 79.5337 2.02831 77.6007 2.02831L54.6007 2.02831C52.6677 2.02831 51.1007 3.59531 51.1007 5.52831L51.1007 49.5283C51.1007 51.4613 52.6677 53.0283 54.6007 53.0283L77.6007 53.0283C79.5337 53.0283 81.1007 51.4613 81.1007 49.5283ZM82.6007 5.52831C82.6007 2.76689 80.3621 0.528309 77.6007 0.528309L54.6007 0.528309C51.8393 0.528309 49.6007 2.76689 49.6007 5.52831L49.6007 49.5283C49.6007 52.2897 51.8393 54.5283 54.6007 54.5283L77.6007 54.5283C80.3621 54.5283 82.6007 52.2897 82.6007 49.5283L82.6007 5.52831Z" fill="black"/>
<path d="M23.1007 46.0283C23.1007 41.61 26.6824 38.0283 31.1007 38.0283H69.1007C73.519 38.0283 77.1007 41.61 77.1007 46.0283V63.0283C77.1007 67.4466 73.519 71.0283 69.1007 71.0283H31.1007C26.6824 71.0283 23.1007 67.4466 23.1007 63.0283V46.0283Z" fill="white"/>
<path fill-rule="evenodd" clip-rule="evenodd" d="M69.1007 39.5283H31.1007C27.5109 39.5283 24.6007 42.4385 24.6007 46.0283V63.0283C24.6007 66.6182 27.5109 69.5283 31.1007 69.5283H69.1007C72.6906 69.5283 75.6007 66.6182 75.6007 63.0283V46.0283C75.6007 42.4385 72.6906 39.5283 69.1007 39.5283ZM31.1007 38.0283C26.6824 38.0283 23.1007 41.61 23.1007 46.0283V63.0283C23.1007 67.4466 26.6824 71.0283 31.1007 71.0283H69.1007C73.519 71.0283 77.1007 67.4466 77.1007 63.0283V46.0283C77.1007 41.61 73.519 38.0283 69.1007 38.0283H31.1007Z" fill="black"/>
<path fill-rule="evenodd" clip-rule="evenodd" d="M27.6331 42.8938C27.8224 42.5254 28.2745 42.3802 28.6429 42.5695L43.7563 50.3354C47.7087 52.3663 52.4159 52.2808 56.2919 50.1076L69.7138 42.5824C70.0751 42.3799 70.5322 42.5085 70.7347 42.8698C70.9373 43.2311 70.8086 43.6882 70.4473 43.8908L57.0255 51.416C52.7107 53.8352 47.4706 53.9304 43.0708 51.6696L27.9574 43.9037C27.5889 43.7144 27.4437 43.2623 27.6331 42.8938Z" fill="black"/>
<path fill-rule="evenodd" clip-rule="evenodd" d="M42.2107 55.1576C42.4583 55.4897 42.3897 55.9596 42.0576 56.2071L28.7483 66.1271C28.4162 66.3746 27.9463 66.3061 27.6988 65.974C27.4512 65.6419 27.5198 65.172 27.8519 64.9244L41.1612 55.0045C41.4933 54.7569 41.9632 54.8255 42.2107 55.1576Z" fill="black"/>
<path fill-rule="evenodd" clip-rule="evenodd" d="M57.6988 55.1576C57.4512 55.4897 57.5198 55.9596 57.8519 56.2071L71.1612 66.1271C71.4933 66.3746 71.9632 66.3061 72.2107 65.974C72.4583 65.6419 72.3897 65.172 72.0576 64.9244L58.7483 55.0045C58.4162 54.7569 57.9463 54.8255 57.6988 55.1576Z" fill="black"/>
<path fill-rule="evenodd" clip-rule="evenodd" d="M60.9138 5.5C60.9138 5.08579 61.2496 4.75 61.6638 4.75H70.0805C70.4947 4.75 70.8305 5.08579 70.8305 5.5C70.8305 5.91421 70.4947 6.25 70.0805 6.25H61.6638C61.2496 6.25 60.9138 5.91421 60.9138 5.5Z" fill="black"/>
</svg>
