<svg width="17" height="13" viewBox="0 0 17 13" fill="none" xmlns="http://www.w3.org/2000/svg">
<path fill-rule="evenodd" clip-rule="evenodd" d="M14.8857 2.80363C14.298 1.81273 13.0267 1.4722 12.0223 2.03662L8.04387 4.27235C7.80313 4.40763 7.49831 4.32215 7.36303 4.08141C7.22775 3.84068 7.31323 3.53586 7.55396 3.40057L11.5324 1.16484C13.0103 0.33432 14.8809 0.835393 15.7458 2.29346C16.6398 3.80058 16.1181 5.74814 14.5905 6.6066L10.719 8.78224C10.4782 8.91752 10.1734 8.83204 10.0381 8.5913C9.90284 8.35057 9.98832 8.04575 10.2291 7.91046L14.1006 5.73483C15.1387 5.15142 15.4933 3.82786 14.8857 2.80363Z" fill="black"/>
<path fill-rule="evenodd" clip-rule="evenodd" d="M6.16448 5.10133C6.29977 5.34206 6.21428 5.64689 5.97355 5.78217L2.10204 7.9578C1.06387 8.54121 0.709339 9.86477 1.31688 10.889C1.90464 11.8799 3.17591 12.2204 4.18029 11.656L8.15874 9.42028C8.39947 9.285 8.70429 9.37048 8.83958 9.61122C8.97486 9.85195 8.88937 10.1568 8.64864 10.2921L4.67019 12.5278C3.19229 13.3583 1.32167 12.8572 0.456799 11.3992C-0.437166 9.89205 0.084516 7.94449 1.61214 7.08603L5.48364 4.91039C5.72438 4.77511 6.0292 4.86059 6.16448 5.10133Z" fill="black"/>
<path fill-rule="evenodd" clip-rule="evenodd" d="M12.3402 4.40368C12.4789 4.64244 12.3978 4.94846 12.159 5.08719L4.71026 9.41512C4.47149 9.55385 4.16547 9.47276 4.02674 9.23399C3.88801 8.99523 3.96911 8.68921 4.20788 8.55048L11.6566 4.22254C11.8954 4.08382 12.2014 4.16491 12.3402 4.40368Z" fill="black"/>
</svg>