<svg width="15" height="16" viewBox="0 0 15 16" fill="none" xmlns="http://www.w3.org/2000/svg">
<path fill-rule="evenodd" clip-rule="evenodd" d="M6.09307 10.4074C5.52542 10.3043 4.85029 10.1638 4.16075 10.0122C2.53326 9.6544 1 10.8757 1 12.4961C1 13.879 2.12105 15.0001 3.50394 15.0001H11.4961C12.8789 15.0001 14 13.879 14 12.4961C14 10.8757 12.4667 9.6544 10.8392 10.0122C10.1497 10.1638 9.47458 10.3043 8.90693 10.4074C8.3699 10.5049 7.84342 10.5858 7.5 10.5858C7.15658 10.5858 6.6301 10.5049 6.09307 10.4074ZM4.37549 9.03556C2.14658 8.54549 0 10.214 0 12.4961C0 14.4313 1.56877 16.0001 3.50394 16.0001H11.4961C13.4312 16.0001 15 14.4313 15 12.4961C15 10.214 12.8534 8.54549 10.6245 9.03556C9.25595 9.33647 7.97788 9.58577 7.5 9.58577C7.02212 9.58577 5.74405 9.33647 4.37549 9.03556Z" fill="black"/>
<path fill-rule="evenodd" clip-rule="evenodd" d="M7.5 6.5C8.88071 6.5 10 5.38071 10 4C10 2.61929 8.88071 1.5 7.5 1.5C6.11929 1.5 5 2.61929 5 4C5 5.38071 6.11929 6.5 7.5 6.5ZM7.5 7.5C9.433 7.5 11 5.933 11 4C11 2.067 9.433 0.5 7.5 0.5C5.567 0.5 4 2.067 4 4C4 5.933 5.567 7.5 7.5 7.5Z" fill="black"/>
</svg>