<?xml version="1.0" encoding="UTF-8"?>
<svg width="13" height="14" viewBox="0 0 13 14" fill="none" xmlns="http://www.w3.org/2000/svg">
<path fill-rule="evenodd" clip-rule="evenodd" d="M6.5 1C5.11929 1 4 2.11929 4 3.5V6.5H3V3.5C3 1.567 4.567 0 6.5 0C8.433 0 10 1.567 10 3.5V6H9V3.5C9 2.11929 7.88071 1 6.5 1Z" fill="black"/>
<path d="M7 10.5C7 10.7761 6.77614 11 6.5 11C6.22386 11 6 10.7761 6 10.5C6 10.2239 6.22386 10 6.5 10C6.77614 10 7 10.2239 7 10.5Z" fill="black"/>
<path d="M5 10.5C5 10.7761 4.77614 11 4.5 11C4.22386 11 4 10.7761 4 10.5C4 10.2239 4.22386 10 4.5 10C4.77614 10 5 10.2239 5 10.5Z" fill="black"/>
<path d="M9 10.5C9 10.7761 8.77614 11 8.5 11C8.22386 11 8 10.7761 8 10.5C8 10.2239 8.22386 10 8.5 10C8.77614 10 9 10.2239 9 10.5Z" fill="black"/>
<path fill-rule="evenodd" clip-rule="evenodd" d="M12 7H1L1 13H12V7ZM1 6C0.447715 6 0 6.44772 0 7V13C0 13.5523 0.447715 14 1 14H12C12.5523 14 13 13.5523 13 13V7C13 6.44772 12.5523 6 12 6H1Z" fill="black"/>
</svg>
