<svg width="11" height="17" viewBox="0 0 11 17" fill="none" xmlns="http://www.w3.org/2000/svg">
<path fill-rule="evenodd" clip-rule="evenodd" d="M9 1H2C1.44772 1 1 1.44772 1 2V15C1 15.5523 1.44772 16 2 16H9C9.55229 16 10 15.5523 10 15V2C10 1.44772 9.55228 1 9 1ZM2 0C0.895431 0 0 0.89543 0 2V15C0 16.1046 0.895431 17 2 17H9C10.1046 17 11 16.1046 11 15V2C11 0.895431 10.1046 0 9 0H2Z" fill="black"/>
<path fill-rule="evenodd" clip-rule="evenodd" d="M5.5 14C5.77614 14 6 13.7761 6 13.5C6 13.2239 5.77614 13 5.5 13C5.22386 13 5 13.2239 5 13.5C5 13.7761 5.22386 14 5.5 14ZM5.5 15C6.32843 15 7 14.3284 7 13.5C7 12.6716 6.32843 12 5.5 12C4.67157 12 4 12.6716 4 13.5C4 14.3284 4.67157 15 5.5 15Z" fill="black"/>
</svg>