<?xml version="1.0" encoding="UTF-8"?>
<svg width="18" height="18" viewBox="0 0 18 18" fill="none" xmlns="http://www.w3.org/2000/svg">
<path fill-rule="evenodd" clip-rule="evenodd" d="M0.324219 1.52949C0.324219 1.1567 0.626427 0.854492 0.999219 0.854492H16.9992C17.372 0.854492 17.6742 1.1567 17.6742 1.52949C17.6742 1.90228 17.372 2.20449 16.9992 2.20449H0.999219C0.626427 2.20449 0.324219 1.90228 0.324219 1.52949Z" fill="#878787"/>
<path fill-rule="evenodd" clip-rule="evenodd" d="M0.324219 6.5041C0.324219 6.13131 0.626427 5.8291 0.999219 5.8291H16.9992C17.372 5.8291 17.6742 6.13131 17.6742 6.5041C17.6742 6.87689 17.372 7.1791 16.9992 7.1791H0.999219C0.626427 7.1791 0.324219 6.87689 0.324219 6.5041Z" fill="#878787"/>
<path fill-rule="evenodd" clip-rule="evenodd" d="M0.324219 11.4719C0.324219 11.0991 0.626427 10.7969 0.999219 10.7969H16.9992C17.372 10.7969 17.6742 11.0991 17.6742 11.4719C17.6742 11.8447 17.372 12.1469 16.9992 12.1469H0.999219C0.626427 12.1469 0.324219 11.8447 0.324219 11.4719Z" fill="#878787"/>
<path fill-rule="evenodd" clip-rule="evenodd" d="M0.324219 16.4704C0.324219 16.0976 0.626427 15.7954 0.999219 15.7954H16.9992C17.372 15.7954 17.6742 16.0976 17.6742 16.4704C17.6742 16.8432 17.372 17.1454 16.9992 17.1454H0.999219C0.626427 17.1454 0.324219 16.8432 0.324219 16.4704Z" fill="#878787"/>
</svg>
