<?xml version="1.0" encoding="UTF-8"?>
<svg width="16" height="16" viewBox="0 0 16 16" fill="none" xmlns="http://www.w3.org/2000/svg">
<path fill-rule="evenodd" clip-rule="evenodd" d="M1.25 1.25V5.41657H5.4169V1.25H1.25ZM1 0C0.447715 0 0 0.447716 0 1V5.66657C0 6.21885 0.447715 6.66657 1 6.66657H5.6669C6.21918 6.66657 6.6669 6.21885 6.6669 5.66657V1C6.6669 0.447715 6.21918 0 5.6669 0H1Z" fill="#878787"/>
<path fill-rule="evenodd" clip-rule="evenodd" d="M1.25 10.5835V14.7501H5.4169V10.5835H1.25ZM1 9.3335C0.447715 9.3335 0 9.78121 0 10.3335V15.0001C0 15.5523 0.447715 16.0001 1 16.0001H5.6669C6.21918 16.0001 6.6669 15.5523 6.6669 15.0001V10.3335C6.6669 9.78121 6.21918 9.3335 5.6669 9.3335H1Z" fill="#878787"/>
<path fill-rule="evenodd" clip-rule="evenodd" d="M10.584 1.25V5.41657H14.7509V1.25H10.584ZM10.334 0C9.7817 0 9.33398 0.447716 9.33398 1V5.66657C9.33398 6.21885 9.7817 6.66657 10.334 6.66657H15.0009C15.5532 6.66657 16.0009 6.21885 16.0009 5.66657V1C16.0009 0.447715 15.5532 0 15.0009 0H10.334Z" fill="#878787"/>
<path fill-rule="evenodd" clip-rule="evenodd" d="M10.584 10.5835V14.7501H14.7509V10.5835H10.584ZM10.334 9.3335C9.7817 9.3335 9.33398 9.78121 9.33398 10.3335V15.0001C9.33398 15.5523 9.7817 16.0001 10.334 16.0001H15.0009C15.5532 16.0001 16.0009 15.5523 16.0009 15.0001V10.3335C16.0009 9.78121 15.5532 9.3335 15.0009 9.3335H10.334Z" fill="#878787"/>
</svg>

