<?xml version="1.0" encoding="UTF-8"?>
<svg width="16" height="16" viewBox="0 0 16 16" fill="none" xmlns="http://www.w3.org/2000/svg">
<path fill-rule="evenodd" clip-rule="evenodd" d="M3.57123 1H1V3.57134L3.57123 3.57134V1ZM1 0C0.447715 0 0 0.447715 0 1V3.57134C0 4.12363 0.447715 4.57134 1 4.57134H3.57123C4.12351 4.57134 4.57123 4.12363 4.57123 3.57134V1C4.57123 0.447715 4.12351 0 3.57123 0H1Z" fill="#878787"/>
<path fill-rule="evenodd" clip-rule="evenodd" d="M3.57123 6.71436H1V9.2857L3.57123 9.2857V6.71436ZM1 5.71436C0.447715 5.71436 0 6.16207 0 6.71436V9.2857C0 9.83798 0.447715 10.2857 1 10.2857H3.57123C4.12351 10.2857 4.57123 9.83799 4.57123 9.2857V6.71436C4.57123 6.16207 4.12351 5.71436 3.57123 5.71436H1Z" fill="#878787"/>
<path fill-rule="evenodd" clip-rule="evenodd" d="M9.28607 1H6.71484V3.57134L9.28607 3.57134V1ZM6.71484 0C6.16256 0 5.71484 0.447715 5.71484 1V3.57134C5.71484 4.12363 6.16256 4.57134 6.71484 4.57134H9.28607C9.83836 4.57134 10.2861 4.12363 10.2861 3.57134V1C10.2861 0.447715 9.83836 0 9.28607 0H6.71484Z" fill="#878787"/>
<path fill-rule="evenodd" clip-rule="evenodd" d="M9.28607 6.71436H6.71484V9.2857L9.28607 9.2857V6.71436ZM6.71484 5.71436C6.16256 5.71436 5.71484 6.16207 5.71484 6.71436V9.2857C5.71484 9.83798 6.16256 10.2857 6.71484 10.2857H9.28607C9.83836 10.2857 10.2861 9.83799 10.2861 9.2857V6.71436C10.2861 6.16207 9.83836 5.71436 9.28607 5.71436H6.71484Z" fill="#878787"/>
<path fill-rule="evenodd" clip-rule="evenodd" d="M9.28607 12.4287H6.71484V15.0001L9.28607 15.0001V12.4287ZM6.71484 11.4287C6.16256 11.4287 5.71484 11.8764 5.71484 12.4287V15.0001C5.71484 15.5523 6.16256 16.0001 6.71484 16.0001H9.28607C9.83836 16.0001 10.2861 15.5523 10.2861 15.0001V12.4287C10.2861 11.8764 9.83836 11.4287 9.28607 11.4287H6.71484Z" fill="#878787"/>
<path fill-rule="evenodd" clip-rule="evenodd" d="M3.57123 12.4287H1V15.0001L3.57123 15.0001V12.4287ZM1 11.4287C0.447715 11.4287 0 11.8764 0 12.4287V15.0001C0 15.5523 0.447715 16.0001 1 16.0001H3.57123C4.12351 16.0001 4.57123 15.5523 4.57123 15.0001V12.4287C4.57123 11.8764 4.12351 11.4287 3.57123 11.4287H1Z" fill="#878787"/>
<path fill-rule="evenodd" clip-rule="evenodd" d="M15.0009 1H12.4297V3.57134L15.0009 3.57134V1ZM12.4297 0C11.8774 0 11.4297 0.447715 11.4297 1V3.57134C11.4297 4.12363 11.8774 4.57134 12.4297 4.57134H15.0009C15.5532 4.57134 16.0009 4.12363 16.0009 3.57134V1C16.0009 0.447715 15.5532 0 15.0009 0H12.4297Z" fill="#878787"/>
<path fill-rule="evenodd" clip-rule="evenodd" d="M15.0009 6.71436H12.4297V9.2857L15.0009 9.2857V6.71436ZM12.4297 5.71436C11.8774 5.71436 11.4297 6.16207 11.4297 6.71436V9.2857C11.4297 9.83798 11.8774 10.2857 12.4297 10.2857H15.0009C15.5532 10.2857 16.0009 9.83799 16.0009 9.2857V6.71436C16.0009 6.16207 15.5532 5.71436 15.0009 5.71436H12.4297Z" fill="#878787"/>
<path fill-rule="evenodd" clip-rule="evenodd" d="M15.0009 12.4287H12.4297V15.0001L15.0009 15.0001V12.4287ZM12.4297 11.4287C11.8774 11.4287 11.4297 11.8764 11.4297 12.4287V15.0001C11.4297 15.5523 11.8774 16.0001 12.4297 16.0001H15.0009C15.5532 16.0001 16.0009 15.5523 16.0009 15.0001V12.4287C16.0009 11.8764 15.5532 11.4287 15.0009 11.4287H12.4297Z" fill="#878787"/>
</svg>
