<?xml version="1.0" encoding="UTF-8"?>
<svg width="18" height="18" viewBox="0 0 18 18" fill="none" xmlns="http://www.w3.org/2000/svg">
<path fill-rule="evenodd" clip-rule="evenodd" d="M5.91992 1.49828C5.92098 1.12549 6.22404 0.824142 6.59683 0.825198L17.2881 0.855472C17.6608 0.856527 17.9622 1.15959 17.9611 1.53238C17.9601 1.90517 17.657 2.20652 17.2842 2.20547L6.59301 2.17519C6.22022 2.17414 5.91887 1.87107 5.91992 1.49828Z" fill="#878787"/>
<path fill-rule="evenodd" clip-rule="evenodd" d="M0.611328 1.53047C0.611328 1.15768 0.913536 0.855469 1.28633 0.855469H2.81374C3.18653 0.855469 3.48874 1.15768 3.48874 1.53047C3.48874 1.90326 3.18653 2.20547 2.81374 2.20547H1.28633C0.913536 2.20547 0.611328 1.90326 0.611328 1.53047Z" fill="#878787"/>
<path fill-rule="evenodd" clip-rule="evenodd" d="M5.91992 6.50016C5.91994 6.12737 6.22216 5.82518 6.59495 5.8252L17.2862 5.82568C17.659 5.8257 17.9612 6.12792 17.9611 6.50071C17.9611 6.87351 17.6589 7.1757 17.2861 7.17568L6.59489 7.1752C6.2221 7.17518 5.9199 6.87296 5.91992 6.50016Z" fill="#878787"/>
<path fill-rule="evenodd" clip-rule="evenodd" d="M0.611328 6.5002C0.611328 6.1274 0.913536 5.8252 1.28633 5.8252H2.81374C3.18653 5.8252 3.48874 6.1274 3.48874 6.5002C3.48874 6.87299 3.18653 7.1752 2.81374 7.1752H1.28633C0.913536 7.1752 0.611328 6.87299 0.611328 6.5002Z" fill="#878787"/>
<path fill-rule="evenodd" clip-rule="evenodd" d="M5.89648 11.4704C5.89648 11.0976 6.19869 10.7954 6.57148 10.7954H17.2866C17.6594 10.7954 17.9616 11.0976 17.9616 11.4704C17.9616 11.8432 17.6594 12.1454 17.2866 12.1454H6.57148C6.19869 12.1454 5.89648 11.8432 5.89648 11.4704Z" fill="#878787"/>
<path fill-rule="evenodd" clip-rule="evenodd" d="M0.611328 11.4704C0.611328 11.0976 0.913536 10.7954 1.28633 10.7954H2.81374C3.18653 10.7954 3.48874 11.0976 3.48874 11.4704C3.48874 11.8432 3.18653 12.1454 2.81374 12.1454H1.28633C0.913536 12.1454 0.611328 11.8432 0.611328 11.4704Z" fill="#878787"/>
<path fill-rule="evenodd" clip-rule="evenodd" d="M5.91992 16.4807C5.91992 16.1079 6.22213 15.8057 6.59492 15.8057H17.2861C17.6589 15.8057 17.9611 16.1079 17.9611 16.4807C17.9611 16.8535 17.6589 17.1557 17.2861 17.1557H6.59492C6.22213 17.1557 5.91992 16.8535 5.91992 16.4807Z" fill="#878787"/>
<path fill-rule="evenodd" clip-rule="evenodd" d="M0.611328 16.4807C0.611328 16.1079 0.913536 15.8057 1.28633 15.8057H2.81374C3.18653 15.8057 3.48874 16.1079 3.48874 16.4807C3.48874 16.8535 3.18653 17.1557 2.81374 17.1557H1.28633C0.913536 17.1557 0.611328 16.8535 0.611328 16.4807Z" fill="#878787"/>
</svg>
