<svg xmlns="http://www.w3.org/2000/svg" width="20" height="17" fill="none" viewBox="0 0 20 17">
  <path fill="#fff" fill-rule="evenodd" d="M1.25 2A.75.75 0 012 1.25h.945c.746 0 1.41.474 1.654 1.18l2.295 6.652c.035.1.13.168.236.168h7.778a.25.25 0 00.245-.2l.86-4.27a.25.25 0 00-.246-.299H7.66a.75.75 0 110-1.5h8.107a1.75 1.75 0 011.716 2.096l-.86 4.269a1.75 1.75 0 01-1.715 1.404H7.13a1.75 1.75 0 01-1.654-1.18L3.181 2.919a.25.25 0 00-.236-.168H2A.75.75 0 011.25 2z" clip-rule="evenodd"/>
  <path fill="#fff" d="M8.676 14.383a1.5 1.5 0 11-3 0 1.5 1.5 0 013 0zM16.676 14.383a1.5 1.5 0 11-3 0 1.5 1.5 0 013 0z"/>
</svg>