<svg width="20" height="19" viewBox="0 0 20 19" fill="none" xmlns="http://www.w3.org/2000/svg">
<path d="M0.749881 9.5C0.335667 9.5 -0.000119209 9.16421 -0.000119209 8.75C-0.000119209 8.3703 0.282035 8.05651 0.64811 8.00685L0.749881 8L6.98438 8C7.39859 8 7.73438 8.33579 7.73438 8.75C7.73438 9.1297 7.45222 9.44349 7.08615 9.49315L6.98438 9.5H0.749881Z" fill="black"/>
<path d="M8.48613 1.5C8.21765 1.5 8 1.16421 8 0.75C8 0.370304 8.18288 0.0565091 8.42016 0.00684667L8.48613 0L14.5139 0C14.7824 0 15 0.335786 15 0.75C15 1.1297 14.8171 1.44349 14.5798 1.49315L14.5139 1.5L8.48613 1.5Z" fill="black"/>
<path d="M1.86622 12.5C1.45201 12.5 1.11622 12.1642 1.11622 11.75C1.11622 11.3703 1.39838 11.0565 1.76445 11.0068L1.86622 11H6.19922C6.61343 11 6.94922 11.3358 6.94922 11.75C6.94922 12.1297 6.66706 12.4435 6.30099 12.4932L6.19922 12.5H1.86622Z" fill="black"/>
<path fill-rule="evenodd" clip-rule="evenodd" d="M11.3672 0.158203C11.7814 0.158203 12.1172 0.49399 12.1172 0.908203V3.51773C12.1172 3.93195 11.7814 4.26773 11.3672 4.26773C10.953 4.26773 10.6172 3.93195 10.6172 3.51773V0.908203C10.6172 0.49399 10.953 0.158203 11.3672 0.158203Z" fill="black"/>
<path fill-rule="evenodd" clip-rule="evenodd" d="M11.3672 7.93115C11.7814 7.93115 12.1172 8.26694 12.1172 8.68115V11.0008C12.1172 11.0709 12.1467 11.1379 12.1985 11.1853L13.8166 12.6649C14.1223 12.9444 14.1435 13.4188 13.864 13.7245C13.5845 14.0302 13.1101 14.0514 12.8044 13.7719L11.1863 12.2922C10.8237 11.9607 10.6172 11.492 10.6172 11.0008V8.68115C10.6172 8.26694 10.953 7.93115 11.3672 7.93115Z" fill="black"/>
<path fill-rule="evenodd" clip-rule="evenodd" d="M11.5005 3C15.9188 3 19.5005 6.58172 19.5005 11C19.5005 15.4183 15.9188 19 11.5005 19C8.14314 19 5.26881 16.9318 4.08203 14H5.73272C6.81675 16.0799 8.99279 17.5 11.5005 17.5C15.0904 17.5 18.0005 14.5899 18.0005 11C18.0005 7.41015 15.0904 4.5 11.5005 4.5C9.41919 4.5 7.56635 5.47823 6.37667 7H4.57077C5.95401 4.60879 8.53938 3 11.5005 3Z" fill="black"/>
</svg>
