<svg xmlns="http://www.w3.org/2000/svg" width="18" height="16" fill="none" viewBox="0 0 18 16">
  <path fill="#000" fill-rule="evenodd" d="M2.524 8a12.368 12.368 0 001.607 2.154c1.186 1.266 2.835 2.43 4.869 2.43s3.682-1.164 4.87-2.43A12.365 12.365 0 0015.476 8a12.363 12.363 0 00-1.607-2.154C12.683 4.58 11.035 3.416 9 3.416S5.317 4.58 4.13 5.847A12.366 12.366 0 002.524 8zm13.81 0l.67-.336-.001-.002L17 7.657l-.008-.015a12.392 12.392 0 00-.519-.882 13.868 13.868 0 00-1.51-1.94C13.652 3.42 11.634 1.917 9 1.917S4.35 3.42 3.036 4.82a13.866 13.866 0 00-1.9 2.583 8.3 8.3 0 00-.129.239L1 7.657l-.003.005v.002l.67.336-.671-.335a.75.75 0 000 .67L1.666 8l-.67.336.001.002.003.005.007.015a4.843 4.843 0 00.13.239 13.868 13.868 0 001.9 2.583c1.312 1.4 3.33 2.903 5.963 2.903s4.65-1.503 5.964-2.903a13.87 13.87 0 001.9-2.583 8.374 8.374 0 00.128-.239L17 8.343l.003-.005v-.002L16.334 8zm0 0l.67.335a.75.75 0 000-.67l-.67.335z" clip-rule="evenodd"/>
  <path fill="#000" fill-rule="evenodd" d="M9 6.75a1.25 1.25 0 100 2.5 1.25 1.25 0 000-2.5zM6.25 8a2.75 2.75 0 115.5 0 2.75 2.75 0 01-5.5 0z" clip-rule="evenodd"/>
</svg>