<?xml version="1.0" encoding="utf-8"?>
<svg width="20" height="21" viewBox="0 0 20 21" fill="none" xmlns="http://www.w3.org/2000/svg">
<path d="M19.86 9.25595C19.7924 8.82933 19.394 8.53871 18.9702 8.60677C18.5464 8.67483 18.2577 9.07587 18.3253 9.50248C18.3261 9.50716 18.3268 9.51178 18.3276 9.51641C19.119 14.2056 15.9842 18.6527 11.3259 19.4493C6.66761 20.2458 2.24986 17.0902 1.45854 12.401C0.667215 7.71184 3.80205 3.26477 8.46029 2.46819C11.325 1.97833 14.241 2.98564 16.2032 5.14304L12.7608 6.29757C12.3536 6.43397 12.1334 6.87681 12.2688 7.28674C12.2689 7.28683 12.2689 7.28697 12.269 7.28706C12.4045 7.69699 12.8444 7.91868 13.2516 7.78233C13.2518 7.78228 13.2518 7.78224 13.2519 7.78224L17.9143 6.21782C18.2317 6.1114 18.4458 5.81234 18.4458 5.47551V0.782229C18.4458 0.350209 18.0979 0 17.6687 0C17.2396 0 16.8917 0.350209 16.8917 0.782229V3.63963C12.8899 -0.191811 6.56025 -0.0321743 2.75407 3.99617C-1.05211 8.02451 -0.893576 14.3961 3.10825 18.2276C7.11008 22.0591 13.4397 21.8995 17.2459 17.8711C19.4163 15.574 20.3849 12.3818 19.86 9.25595Z" fill="black"/>
</svg>
